
<svg width="21" height="21" viewBox="0 0 21 21" fill="none" xmlns="http://www.w3.org/2000/svg">
    <path d="M14.8103 1.7428H12.1914V4.36173H14.8103V1.7428Z" fill="white"/>
    <path d="M12.1923 0H10.4492V1.74304H12.1923V0Z" fill="white"/>
    <path d="M8.27815 16.5368C6.11724 16.5368 4.36488 14.7851 4.36488 12.6247V6.09372H0V12.641C0.00931175 17.2055 3.7119 20.9029 8.27873 20.9029C12.8456 20.9029 16.5575 17.1962 16.5575 12.6242V8.71265H12.1908V12.6242C12.1908 14.7845 10.4391 16.5363 8.27757 16.5363L8.27815 16.5368Z" fill="white"/>
    <path d="M12.1908 4.36165H7.83984V8.71256H12.1908V4.36165Z" fill="white"/>
    <path d="M20.0424 5.22839H16.5586V8.71215H20.0424V5.22839Z" fill="white"/>
</svg>
